<?xml version="1.0" encoding="utf-8"?>
<!-- Generator: Adobe Illustrator 19.2.1, SVG Export Plug-In . SVG Version: 6.00 Build 0)  -->
<svg version="1.1" xmlns="http://www.w3.org/2000/svg" xmlns:xlink="http://www.w3.org/1999/xlink" x="0px" y="0px"
	 viewBox="0 0 154.4 155" style="enable-background:new 0 0 154.4 155;" xml:space="preserve">
<style type="text/css">
	.st0{fill:#FFAD00;}
	.st1{fill:none;stroke:#F9A003;stroke-miterlimit:10;}
	.st2{fill:#1E2424;}
	.st3{font-family:'Kefa-Bold';}
	.st4{font-size:27.7497px;}
	.st5{fill:#00CEB3;}
	.st6{fill:#00D1BC;}
</style>
<g id="Layer_1">
	<polygon class="st0" points="38,60 31,60 31,52 76.5,25 123,52 123,60 116,60 116,55 76.2,32.5 38.1,55.5 	"/>
	<polygon class="st0" points="38,97 31,97 31,105 75.5,132 123,105 123,97 116,97 116,102 76.2,124.5 38.1,101.5 	"/>
	<line class="st1" x1="76.5" y1="0" x2="76.5" y2="16"/>
	<line class="st1" x1="76.5" y1="22" x2="76.5" y2="20"/>
	<line class="st1" x1="64.5" y1="18.2" x2="60.2" y2="1.8"/>
	<line class="st1" x1="64.5" y1="22.8" x2="65.8" y2="27.3"/>
	<line class="st1" x1="55.2" y1="14.8" x2="60.2" y2="29.8"/>
	<line class="st1" x1="43.8" y1="8" x2="55.2" y2="32.8"/>
	<line class="st1" x1="42" y1="22" x2="51" y2="36"/>
	<line class="st1" x1="29.2" y1="18.2" x2="42.7" y2="34.2"/>
	<line class="st1" x1="46.5" y1="38.2" x2="43.8" y2="36"/>
	<line class="st1" x1="30.3" y1="31" x2="40.7" y2="41.5"/>
	<line class="st1" x1="17.8" y1="31" x2="35.5" y2="44.5"/>
	<line class="st1" x1="21" y1="42.5" x2="26.7" y2="46.8"/>
	<line class="st1" x1="7.8" y1="44.5" x2="27.8" y2="54"/>
	<line class="st1" x1="14.2" y1="55.7" x2="18.7" y2="57.7"/>
	<line class="st1" x1="22.3" y1="58.7" x2="26.7" y2="60"/>
	<line class="st1" x1="4" y1="61.5" x2="7.8" y2="62.8"/>
	<line class="st1" x1="0" y1="78.5" x2="10" y2="78.5"/>
	<line class="st1" x1="2.2" y1="95.3" x2="11.7" y2="93"/>
	<line class="st1" x1="15.2" y1="99.8" x2="22.3" y2="97"/>
	<line class="st1" x1="7.8" y1="112" x2="27.2" y2="102.3"/>
	<line class="st1" x1="21.5" y1="113.5" x2="29.7" y2="108.2"/>
	<line class="st1" x1="17.5" y1="126.7" x2="31" y2="116.2"/>
	<line class="st1" x1="32.5" y1="114.5" x2="34" y2="113.5"/>
	<line class="st1" x1="31" y1="126" x2="36.7" y2="119.2"/>
	<line class="st1" x1="38.3" y1="117.8" x2="40.7" y2="114.5"/>
	<line class="st1" x1="32.5" y1="137" x2="37.3" y2="128.7"/>
	<line class="st1" x1="39.5" y1="126" x2="45.7" y2="119.2"/>
	<line class="st1" x1="42.6" y1="134.7" x2="50" y2="122.6"/>
	<line class="st1" x1="44.3" y1="148.2" x2="46.3" y2="143.5"/>
	<line class="st1" x1="50" y1="135.3" x2="55.7" y2="123.7"/>
	<line class="st1" x1="55.7" y1="141" x2="61.3" y2="126"/>
	<line class="st1" x1="60.3" y1="154.2" x2="61.3" y2="151"/>
	<line class="st1" x1="62.5" y1="145.8" x2="66" y2="129.5"/>
	<line class="st1" x1="70" y1="144.5" x2="71.5" y2="132.8"/>
	<line class="st1" x1="77.5" y1="155" x2="77.5" y2="151"/>
	<line class="st1" x1="77.5" y1="147" x2="77.5" y2="137"/>
	<line class="st1" x1="76.5" y1="0" x2="76.5" y2="16"/>
	<line class="st1" x1="76.5" y1="22" x2="76.5" y2="20"/>
	<line class="st1" x1="89" y1="18.2" x2="93.3" y2="1.8"/>
	<line class="st1" x1="89" y1="22.8" x2="87.7" y2="27.3"/>
	<line class="st1" x1="98.3" y1="14.8" x2="93.3" y2="29.8"/>
	<line class="st1" x1="109.7" y1="8" x2="98.3" y2="32.8"/>
	<line class="st1" x1="111.5" y1="22" x2="102.5" y2="36"/>
	<line class="st1" x1="124.3" y1="18.2" x2="110.8" y2="34.2"/>
	<line class="st1" x1="107" y1="38.2" x2="109.7" y2="36"/>
	<line class="st1" x1="123.2" y1="31" x2="112.8" y2="41.5"/>
	<line class="st1" x1="135.7" y1="31" x2="118" y2="44.5"/>
	<line class="st1" x1="132.5" y1="42.5" x2="126.8" y2="46.8"/>
	<line class="st1" x1="145.7" y1="44.5" x2="125.7" y2="54"/>
	<line class="st1" x1="139.3" y1="55.7" x2="134.8" y2="57.7"/>
	<line class="st1" x1="131.2" y1="58.7" x2="126.8" y2="60"/>
	<line class="st1" x1="149.5" y1="61.5" x2="145.7" y2="62.8"/>
	<line class="st1" x1="153" y1="78.5" x2="143" y2="78.5"/>
	<line class="st1" x1="151.3" y1="95.3" x2="141.8" y2="93"/>
	<line class="st1" x1="138.3" y1="99.8" x2="131.2" y2="97"/>
	<line class="st1" x1="145.7" y1="112" x2="126.3" y2="102.3"/>
	<line class="st1" x1="132" y1="113.5" x2="123.8" y2="108.2"/>
	<line class="st1" x1="136" y1="126.7" x2="122.5" y2="116.2"/>
	<line class="st1" x1="121" y1="114.5" x2="119.5" y2="113.5"/>
	<line class="st1" x1="122.5" y1="126" x2="116.8" y2="119.2"/>
	<line class="st1" x1="115.2" y1="117.8" x2="112.8" y2="114.5"/>
	<line class="st1" x1="121" y1="137" x2="116.2" y2="128.7"/>
	<line class="st1" x1="114" y1="126" x2="107.8" y2="119.2"/>
	<line class="st1" x1="110.9" y1="134.7" x2="103.5" y2="122.6"/>
	<line class="st1" x1="109.2" y1="148.2" x2="107.2" y2="143.5"/>
	<line class="st1" x1="103.5" y1="135.3" x2="97.8" y2="123.7"/>
	<line class="st1" x1="97.8" y1="141" x2="92.2" y2="126"/>
	<line class="st1" x1="93.2" y1="154.2" x2="92.2" y2="151"/>
	<line class="st1" x1="91" y1="145.8" x2="87.5" y2="129.5"/>
	<line class="st1" x1="83.5" y1="144.5" x2="82" y2="132.8"/>
	<line class="st1" x1="75.5" y1="155" x2="75.5" y2="151"/>
	<line class="st1" x1="75.5" y1="147" x2="75.5" y2="137"/>
	<text transform="matrix(1 0 0 1 19.917 88.3032)" class="st2 st3 st4">GARAGE</text>
	<g>
		<path class="st5" d="M66.2,50.4c0,0-0.2-0.2,0-0.4c0.4-0.4,1-0.7,1.3-1c0.4-0.4,0.5-1.3,1.1-1.9c1.3-1.3,2-2.1,6.5-1.9l-0.5,0.6
			c-3,0.5-4,0.3-2.4,2.5l-1.8,1.9c0,0-1.7-1.3-2.3,0.5c-0.1,0.2,0,0.4-0.4,0.8c-0.2,0.2-0.4,0-0.4,0C67.2,51.4,66.2,50.4,66.2,50.4z
			"/>
		<path class="st5" d="M73.1,49.3c-0.2-0.1-0.5-0.1-0.6,0c-0.1,0.1-0.4,0.4-0.6,0.6c-0.2,0.2-0.5,0.5-0.6,0.6
			c-0.1,0.2-0.1,0.5,0,0.6c0.7,0.7,2,1.6,3.2,2.8c3.2,3.1,7.4,7.3,8.5,8.4c0.2,0.1,0.5,0.1,0.6,0c0.1-0.1,0.3-0.4,0.6-0.6
			c0.2-0.3,0.5-0.5,0.6-0.6c0.1-0.2,0.1-0.5,0-0.6c-1.2-1.1-5.6-5-8.8-8.1C74.8,51.2,73.8,49.9,73.1,49.3z"/>
	</g>
	<g>
		<path class="st5" d="M85.7,51.5c0,0-0.2,0.2-0.4,0C85,51.1,85.1,51,85,50.8c-0.6-1.8-2.3-0.5-2.3-0.5L81,48.4
			c1.6-2.2,0.6-2-2.4-2.5L78,45.3c4.5-0.3,5.2,0.5,6.5,1.9c0.5,0.6,0.7,1.5,1.1,1.9c0.3,0.3,0.9,0.5,1.3,1c0.2,0.2,0,0.4,0,0.4
			S85.9,51.4,85.7,51.5z"/>
		<path class="st5" d="M77.1,52.4c-3.2,3.1-7.7,7-8.8,8.1c-0.2,0.1-0.2,0.4,0,0.6c0.1,0.1,0.3,0.4,0.6,0.6c0.2,0.3,0.5,0.5,0.6,0.6
			c0.1,0.2,0.4,0.2,0.6,0c1.2-1.1,5.3-5.3,8.5-8.4c1.3-1.2,2.5-2.1,3.2-2.8c0.2-0.1,0.2-0.4,0-0.6c-0.1-0.1-0.4-0.4-0.6-0.6
			c-0.2-0.2-0.5-0.5-0.6-0.6c-0.1-0.2-0.4-0.2-0.6,0C79.3,49.9,78.4,51.2,77.1,52.4z"/>
	</g>
	<g>
		<path class="st6" d="M69.8,106.3"/>
		<path class="st6" d="M83.5,103.6L82,99.7c-0.3-0.7-0.9-1.4-2-1.4h-2.1h-3.6h-2.1c-1.1,0-1.8,0.6-2,1.4l-1.5,3.9
			c-0.6,0.1-1.6,0.8-1.6,2.1v4.9h1.5v1.6c0,1.9,2.7,1.9,2.7,0v-1.6H76h4.9v1.6c0,1.9,2.7,1.9,2.7,0v-1.6h1.5v-4.9
			C85.1,104.3,84.1,103.6,83.5,103.6z M69.8,107.6c-0.7,0-1.3-0.6-1.3-1.3c0-0.7,0.6-1.3,1.3-1.3c0.7,0,1.3,0.6,1.3,1.3
			C71,107,70.5,107.6,69.8,107.6z M76,103.5L76,103.5h-5.9l1.1-3c0.1-0.4,0.3-0.7,0.8-0.7H76h0H80c0.5,0,0.7,0.3,0.8,0.7l1.1,3H76z
			 M82.3,107.6c-0.7,0-1.3-0.6-1.3-1.3c0-0.7,0.6-1.3,1.3-1.3c0.7,0,1.3,0.6,1.3,1.3C83.5,107,83,107.6,82.3,107.6z"/>
		<path class="st6" d="M82.3,106.3"/>
	</g>
</g>
<g id="Layer_2">
</g>
</svg>
