<?xml version="1.0" encoding="utf-8"?>
<!-- Generator: Adobe Illustrator 19.2.1, SVG Export Plug-In . SVG Version: 6.00 Build 0)  -->
<svg version="1.1" id="Layer_1" xmlns="http://www.w3.org/2000/svg" xmlns:xlink="http://www.w3.org/1999/xlink" x="0px" y="0px"
	 viewBox="0 0 60 50" style="enable-background:new 0 0 60 50;" xml:space="preserve">
<style type="text/css">
	.st0{fill:#FDAC00;}
	.st1{opacity:0.7;fill:#00D0BC;}
	.st2{fill:#1E2424;}
</style>
<g id="Layer_2">
	<rect x="1.2" y="10.4" class="st0" width="57.4" height="38.4"/>
	<rect x="1.2" y="0.9" class="st0" width="57.4" height="4"/>
	<rect x="26.4" y="2.9" class="st0" width="6.7" height="8.9"/>
	<rect x="2" y="4" class="st0" width="3" height="7.7"/>
	<rect x="55" y="4" class="st0" width="3" height="7.7"/>
	<polygon class="st0" points="3.8,9 7.5,7.3 14.3,5.8 17.8,5.3 27,4.9 34.7,4.4 42.5,4.9 47.2,6 55.4,8.4 55,4 10.4,4 3.5,4.4 	"/>
	<polygon class="st1" points="5,10.9 5.3,8.3 13.7,6 19.3,5.2 23.7,4.6 26.4,4.6 26.4,10.9 	"/>
	<polygon class="st1" points="54.7,11 54.4,8.5 46,6.1 40.5,5.4 36,4.7 33.3,4.7 33.3,11 	"/>
</g>
<g id="Layer_1_1_">
	<title>Group 101</title>
	<desc>Created with Sketch.</desc>
	<g>
		<g transform="translate(-1200.000000, -1495.000000)">
			<g transform="translate(1200.000000, 1495.000000)">
				<path class="st2" d="M2,48h56V2H2V48z M59,50H1c-0.6,0-1-0.4-1-1V1c0-0.6,0.4-1,1-1h58c0.6,0,1,0.4,1,1v48
					C60,49.6,59.6,50,59,50L59,50z"/>
				<path class="st2" d="M34,10.4h20V8.6c-6.3-2.1-13-3.2-20-3.3V10.4z M55,11.7H33c-0.6,0-1-0.3-1-0.6V4.6C32,4.3,32.5,4,33,4
					c7.9,0,15.4,1.2,22.5,3.6C55.8,7.7,56,8,56,8.2v2.9C56,11.4,55.6,11.7,55,11.7L55,11.7z"/>
				<path class="st2" d="M6,10.4h20V5.3C19,5.4,12.3,6.5,6,8.6V10.4z M27,11.7H5c-0.6,0-1-0.3-1-0.6V8.2C4,8,4.2,7.7,4.5,7.6
					C11.6,5.2,19.1,4,27,4c0.6,0,1,0.3,1,0.6V11C28,11.4,27.6,11.7,27,11.7L27,11.7z"/>
				<path class="st2" d="M6,20.5h48V16H6V20.5z M55,22.8H5c-0.6,0-1-0.5-1-1.1v-6.8c0-0.6,0.4-1.1,1-1.1h50c0.6,0,1,0.5,1,1.1v6.8
					C56,22.3,55.6,22.8,55,22.8L55,22.8z"/>
				<path class="st2" d="M6,27.3h48v-4.5H6V27.3z M55,29.6H5c-0.6,0-1-0.5-1-1.1v-6.8c0-0.6,0.4-1.1,1-1.1h50c0.6,0,1,0.5,1,1.1v6.8
					C56,29.1,55.6,29.6,55,29.6L55,29.6z"/>
				<path class="st2" d="M6,34.1h48v-4.5H6V34.1z M55,36.4H5c-0.6,0-1-0.5-1-1.1v-6.8c0-0.6,0.4-1.1,1-1.1h50c0.6,0,1,0.5,1,1.1v6.8
					C56,35.9,55.6,36.4,55,36.4L55,36.4z"/>
				<path class="st2" d="M6,40.9h48v-4.5H6V40.9z M55,43.2H5c-0.6,0-1-0.5-1-1.1v-6.8c0-0.6,0.4-1.1,1-1.1h50c0.6,0,1,0.5,1,1.1v6.8
					C56,42.7,55.6,43.2,55,43.2L55,43.2z"/>
				<path class="st2" d="M6,47.7h48v-4.5H6V47.7z M55,50H5c-0.6,0-1-0.5-1-1.1v-6.8C4,41.5,4.4,41,5,41h50c0.6,0,1,0.5,1,1.1v6.8
					C56,49.5,55.6,50,55,50L55,50z"/>
			</g>
		</g>
	</g>
</g>
</svg>
