<?xml version="1.0" encoding="utf-8"?>
<!-- Generator: Adobe Illustrator 19.2.1, SVG Export Plug-In . SVG Version: 6.00 Build 0)  -->
<svg version="1.1" id="Layer_1" xmlns="http://www.w3.org/2000/svg" xmlns:xlink="http://www.w3.org/1999/xlink" x="0px" y="0px"
	 viewBox="0 0 62.8 88.3" style="enable-background:new 0 0 62.8 88.3;" xml:space="preserve">
<path d="M17.3,64.1l2-2c3.1-3.1,6.4-4.6,9.9-4.6c5,0,8.6,3.1,9,3.5l2.6,2.5V23.3h-35v51h21.1l-7.6-8L17.3,64.1z M14.6,38.3
	c0-4.6,3.7-8.3,8.3-8.3s8.3,3.7,8.3,8.3s-3.7,8.3-8.3,8.3S14.6,42.9,14.6,38.3z"/>
<path d="M43.8,47.2v17.4l-2.9,3.2L36,63c0,0-6.9-6.5-14.7,1.3l23.4,24h18.1V67.4C62.8,67.4,64.8,47.2,43.8,47.2z"/>
<path d="M22.9,14.9c4.9,0,9.5,1.4,13.4,3.7l2.2-4.2c-4.6-2.7-9.9-4.3-15.6-4.3c-6.6,0-12.7,2.1-17.6,5.6l2.5,4.1
	C12,16.8,17.3,14.9,22.9,14.9z"/>
<path d="M41,9.6l2.2-4.2C37.2,2,30.3,0,22.9,0C14.4,0,6.5,2.6,0,7.1l2.5,4.1c5.8-4,12.9-6.4,20.5-6.4C29.5,4.7,35.7,6.5,41,9.6z"/>
</svg>
